<?xml version="1.0" encoding="UTF-8" standalone="no"?>
<!DOCTYPE svg PUBLIC "-//W3C//DTD SVG 1.1//EN"
 "http://www.w3.org/Graphics/SVG/1.1/DTD/svg11.dtd">
<!-- Generated by graphviz version 8.1.0 (0)
 -->
<!-- Title: G Pages: 1 -->
<svg width="976pt" height="624pt"
 viewBox="0.00 0.00 975.50 623.73" xmlns="http://www.w3.org/2000/svg" xmlns:xlink="http://www.w3.org/1999/xlink">
<g id="graph0" class="graph" transform="scale(1 1) rotate(0) translate(4 619.73)">
<title>G</title>
<polygon fill="white" stroke="none" points="-4,4 -4,-619.73 971.5,-619.73 971.5,4 -4,4"/>
<!-- pYrs7iz3VznXh&#45;ogv4aM62VmMNxXFiT4P24tIfVz9sTk -->
<g id="node1" class="node">
<title>pYrs7iz3VznXh&#45;ogv4aM62VmMNxXFiT4P24tIfVz9sTk</title>
<polygon fill="none" stroke="black" points="0,-0.5 0,-101.5 179.75,-101.5 179.75,-0.5 0,-0.5"/>
<text text-anchor="middle" x="89.75" y="-84.2" font-family="Times,serif" font-size="14.00">Yrs7iz::Tk</text>
<polyline fill="none" stroke="black" points="0,-76.25 179.75,-76.25"/>
<text text-anchor="middle" x="79.62" y="-58.95" font-family="Times,serif" font-size="14.00">signed: AAAAAA::AA</text>
<polyline fill="none" stroke="black" points="159.25,-51 159.25,-76.25"/>
<text text-anchor="middle" x="169.5" y="-58.95" font-family="Times,serif" font-size="14.00"> </text>
<polyline fill="none" stroke="black" points="0,-51 179.75,-51"/>
<text text-anchor="middle" x="89.88" y="-33.7" font-family="Times,serif" font-size="14.00">data=Hello, Sol!</text>
<polyline fill="none" stroke="black" points="0,-25.75 179.75,-25.75"/>
<text text-anchor="middle" x="89.88" y="-8.45" font-family="Times,serif" font-size="14.00">0 links</text>
</g>
<!-- p9TYkQm06BnL3h24QOAM8mJ1OMbP8Bh5G7cBC_As4HC8 -->
<g id="node2" class="node">
<title>p9TYkQm06BnL3h24QOAM8mJ1OMbP8Bh5G7cBC_As4HC8</title>
<polygon fill="none" stroke="black" points="250.25,-461.5 250.25,-562.5 600.25,-562.5 600.25,-461.5 250.25,-461.5"/>
<text text-anchor="middle" x="425" y="-545.2" font-family="Times,serif" font-size="14.00">9TYkQm::C8</text>
<polyline fill="none" stroke="black" points="250.25,-537.25 600.25,-537.25"/>
<text text-anchor="middle" x="329.88" y="-519.95" font-family="Times,serif" font-size="14.00">signed: AAAAAA::AA</text>
<polyline fill="none" stroke="black" points="409.5,-512 409.5,-537.25"/>
<text text-anchor="middle" x="504.88" y="-519.95" font-family="Times,serif" font-size="14.00">/my/example/spacename</text>
<polyline fill="none" stroke="black" points="250.25,-512 600.25,-512"/>
<text text-anchor="middle" x="425.25" y="-494.7" font-family="Times,serif" font-size="14.00">data=some data</text>
<polyline fill="none" stroke="black" points="250.25,-486.75 600.25,-486.75"/>
<text text-anchor="middle" x="425.25" y="-469.45" font-family="Times,serif" font-size="14.00">0 links</text>
</g>
<!-- pT87F_cDWdCu&#45;LeYFuc7ao8oiApou2SemzScUn&#45;dl&#45;xI -->
<g id="node3" class="node">
<title>pT87F_cDWdCu&#45;LeYFuc7ao8oiApou2SemzScUn&#45;dl&#45;xI</title>
<polygon fill="none" stroke="black" points="247.25,-341.5 247.25,-442.5 603.25,-442.5 603.25,-341.5 247.25,-341.5"/>
<text text-anchor="middle" x="425" y="-425.2" font-family="Times,serif" font-size="14.00">T87F_c::xI</text>
<polyline fill="none" stroke="black" points="247.25,-417.25 603.25,-417.25"/>
<text text-anchor="middle" x="326.88" y="-399.95" font-family="Times,serif" font-size="14.00">signed: AAAAAA::AA</text>
<polyline fill="none" stroke="black" points="406.5,-392 406.5,-417.25"/>
<text text-anchor="middle" x="504.88" y="-399.95" font-family="Times,serif" font-size="14.00">/my/example/other_space</text>
<polyline fill="none" stroke="black" points="247.25,-392 603.25,-392"/>
<text text-anchor="middle" x="425.25" y="-374.7" font-family="Times,serif" font-size="14.00">data=</text>
<polyline fill="none" stroke="black" points="247.25,-366.75 603.25,-366.75"/>
<text text-anchor="middle" x="425.25" y="-349.45" font-family="Times,serif" font-size="14.00">0 links</text>
</g>
<!-- pIUU1hD6QIV1UoQDhPYWHZ58DTJ9H_pDHXpmc1wvaQfQ -->
<g id="node4" class="node">
<title>pIUU1hD6QIV1UoQDhPYWHZ58DTJ9H_pDHXpmc1wvaQfQ</title>
<polygon fill="none" stroke="black" points="215.75,-221.5 215.75,-322.5 634.75,-322.5 634.75,-221.5 215.75,-221.5"/>
<text text-anchor="middle" x="425.25" y="-305.2" font-family="Times,serif" font-size="14.00">IUU1hD::fQ</text>
<polyline fill="none" stroke="black" points="215.75,-297.25 634.75,-297.25"/>
<text text-anchor="middle" x="294.62" y="-279.95" font-family="Times,serif" font-size="14.00">signed: tb0anw::W4</text>
<polyline fill="none" stroke="black" points="373.5,-272 373.5,-297.25"/>
<text text-anchor="middle" x="504.12" y="-279.95" font-family="Times,serif" font-size="14.00">/my/example/spacename/subspace</text>
<polyline fill="none" stroke="black" points="215.75,-272 634.75,-272"/>
<text text-anchor="middle" x="425.25" y="-254.7" font-family="Times,serif" font-size="14.00">data=</text>
<polyline fill="none" stroke="black" points="215.75,-246.75 634.75,-246.75"/>
<text text-anchor="middle" x="425.25" y="-229.45" font-family="Times,serif" font-size="14.00">0 links</text>
</g>
<!-- pvZMwC_qZL6ee0M5yRWialHwomDCHE6vlM1Yu6R6ryaw -->
<g id="node5" class="node">
<title>pvZMwC_qZL6ee0M5yRWialHwomDCHE6vlM1Yu6R6ryaw</title>
<polygon fill="none" stroke="black" points="276.88,-51.25 276.88,-202.75 573.62,-202.75 573.62,-51.25 276.88,-51.25"/>
<text text-anchor="middle" x="425.25" y="-185.45" font-family="Times,serif" font-size="14.00">vZMwC_::aw</text>
<polyline fill="none" stroke="black" points="276.88,-177.5 573.62,-177.5"/>
<text text-anchor="middle" x="356.5" y="-160.2" font-family="Times,serif" font-size="14.00">signed: AAAAAA::AA</text>
<polyline fill="none" stroke="black" points="436.12,-152.25 436.12,-177.5"/>
<text text-anchor="middle" x="504.88" y="-160.2" font-family="Times,serif" font-size="14.00">/my/example/link</text>
<polyline fill="none" stroke="black" points="276.88,-152.25 573.62,-152.25"/>
<text text-anchor="middle" x="425.25" y="-134.95" font-family="Times,serif" font-size="14.00">data=</text>
<polyline fill="none" stroke="black" points="276.88,-127 573.62,-127"/>
<text text-anchor="middle" x="425.25" y="-109.7" font-family="Times,serif" font-size="14.00">2 links</text>
<polyline fill="none" stroke="black" points="276.88,-101.75 573.62,-101.75"/>
<text text-anchor="middle" x="425.25" y="-84.45" font-family="Times,serif" font-size="14.00">my first link: Yrs7iz::Tk</text>
<polyline fill="none" stroke="black" points="276.88,-76.5 573.62,-76.5"/>
<text text-anchor="middle" x="425.25" y="-59.2" font-family="Times,serif" font-size="14.00">other link: Yrs7iz::Tk</text>
</g>
<!-- pvZMwC_qZL6ee0M5yRWialHwomDCHE6vlM1Yu6R6ryaw&#45;&gt;pYrs7iz3VznXh&#45;ogv4aM62VmMNxXFiT4P24tIfVz9sTk -->
<g id="edge1" class="edge">
<title>pvZMwC_qZL6ee0M5yRWialHwomDCHE6vlM1Yu6R6ryaw:0&#45;&gt;pYrs7iz3VznXh&#45;ogv4aM62VmMNxXFiT4P24tIfVz9sTk:hash</title>
<path fill="none" stroke="black" d="M276.25,-89C237.21,-89 224.83,-89 190.58,-89"/>
<polygon fill="black" stroke="black" points="190.75,-85.5 180.75,-89 190.75,-92.5 190.75,-85.5"/>
</g>
<!-- pvZMwC_qZL6ee0M5yRWialHwomDCHE6vlM1Yu6R6ryaw&#45;&gt;pYrs7iz3VznXh&#45;ogv4aM62VmMNxXFiT4P24tIfVz9sTk -->
<g id="edge2" class="edge">
<title>pvZMwC_qZL6ee0M5yRWialHwomDCHE6vlM1Yu6R6ryaw:1&#45;&gt;pYrs7iz3VznXh&#45;ogv4aM62VmMNxXFiT4P24tIfVz9sTk:hash</title>
<path fill="none" stroke="black" d="M276.25,-64C235.75,-64 225.68,-84.89 190.41,-88.48"/>
<polygon fill="black" stroke="black" points="190.57,-85.01 180.75,-89 190.91,-92.01 190.57,-85.01"/>
</g>
<!-- pbU6EYdx2vg0IY&#45;o6CgjNxvpGsjKRpDYZ956xfMvzq40 -->
<g id="node6" class="node">
<title>pbU6EYdx2vg0IY&#45;o6CgjNxvpGsjKRpDYZ956xfMvzq40</title>
<polygon fill="none" stroke="black" points="670.75,-367.38 670.75,-594.62 967.5,-594.62 967.5,-367.38 670.75,-367.38"/>
<text text-anchor="middle" x="819" y="-577.33" font-family="Times,serif" font-size="14.00">bU6EYd::40</text>
<polyline fill="none" stroke="black" points="670.75,-569.38 967.5,-569.38"/>
<text text-anchor="middle" x="750.38" y="-552.08" font-family="Times,serif" font-size="14.00">signed: AAAAAA::AA</text>
<polyline fill="none" stroke="black" points="830,-544.12 830,-569.38"/>
<text text-anchor="middle" x="898.75" y="-552.08" font-family="Times,serif" font-size="14.00">/my/example/link</text>
<polyline fill="none" stroke="black" points="670.75,-544.12 967.5,-544.12"/>
<text text-anchor="middle" x="819.12" y="-526.83" font-family="Times,serif" font-size="14.00">data=</text>
<polyline fill="none" stroke="black" points="670.75,-518.88 967.5,-518.88"/>
<text text-anchor="middle" x="819.12" y="-501.57" font-family="Times,serif" font-size="14.00">5 links</text>
<polyline fill="none" stroke="black" points="670.75,-493.62 967.5,-493.62"/>
<text text-anchor="middle" x="819.12" y="-476.32" font-family="Times,serif" font-size="14.00">mytag: Yrs7iz::Tk</text>
<polyline fill="none" stroke="black" points="670.75,-468.38 967.5,-468.38"/>
<text text-anchor="middle" x="819.12" y="-451.07" font-family="Times,serif" font-size="14.00">mytag: 9TYkQm::C8</text>
<polyline fill="none" stroke="black" points="670.75,-443.12 967.5,-443.12"/>
<text text-anchor="middle" x="819.12" y="-425.82" font-family="Times,serif" font-size="14.00">mytag: T87F_c::xI</text>
<polyline fill="none" stroke="black" points="670.75,-417.88 967.5,-417.88"/>
<text text-anchor="middle" x="819.12" y="-400.57" font-family="Times,serif" font-size="14.00">mytag: IUU1hD::fQ</text>
<polyline fill="none" stroke="black" points="670.75,-392.62 967.5,-392.62"/>
<text text-anchor="middle" x="819.12" y="-375.32" font-family="Times,serif" font-size="14.00">mytag: vZMwC_::aw</text>
</g>
<!-- pbU6EYdx2vg0IY&#45;o6CgjNxvpGsjKRpDYZ956xfMvzq40&#45;&gt;pYrs7iz3VznXh&#45;ogv4aM62VmMNxXFiT4P24tIfVz9sTk -->
<g id="edge3" class="edge">
<title>pbU6EYdx2vg0IY&#45;o6CgjNxvpGsjKRpDYZ956xfMvzq40:0&#45;&gt;pYrs7iz3VznXh&#45;ogv4aM62VmMNxXFiT4P24tIfVz9sTk:hash</title>
<path fill="none" stroke="black" d="M670.75,-481C627.26,-481 670.72,-547.55 634.75,-572 557.75,-624.35 283.99,-635.35 215.75,-572 178.93,-537.82 226.39,-146.48 189.06,-94.65"/>
<polygon fill="black" stroke="black" points="191.11,-91.2 180.75,-89 187.48,-97.18 191.11,-91.2"/>
</g>
<!-- pbU6EYdx2vg0IY&#45;o6CgjNxvpGsjKRpDYZ956xfMvzq40&#45;&gt;p9TYkQm06BnL3h24QOAM8mJ1OMbP8Bh5G7cBC_As4HC8 -->
<g id="edge4" class="edge">
<title>pbU6EYdx2vg0IY&#45;o6CgjNxvpGsjKRpDYZ956xfMvzq40:1&#45;&gt;p9TYkQm06BnL3h24QOAM8mJ1OMbP8Bh5G7cBC_As4HC8:hash</title>
<path fill="none" stroke="black" d="M670.75,-456C622.85,-456 648.36,-535.89 611.93,-548.37"/>
<polygon fill="black" stroke="black" points="611.61,-545.03 602.25,-550 612.66,-551.95 611.61,-545.03"/>
</g>
<!-- pbU6EYdx2vg0IY&#45;o6CgjNxvpGsjKRpDYZ956xfMvzq40&#45;&gt;pT87F_cDWdCu&#45;LeYFuc7ao8oiApou2SemzScUn&#45;dl&#45;xI -->
<g id="edge5" class="edge">
<title>pbU6EYdx2vg0IY&#45;o6CgjNxvpGsjKRpDYZ956xfMvzq40:2&#45;&gt;pT87F_cDWdCu&#45;LeYFuc7ao8oiApou2SemzScUn&#45;dl&#45;xI:hash</title>
<path fill="none" stroke="black" d="M670.75,-430C645.24,-430 636.24,-430 615.24,-430"/>
<polygon fill="black" stroke="black" points="615.25,-426.5 605.25,-430 615.25,-433.5 615.25,-426.5"/>
</g>
<!-- pbU6EYdx2vg0IY&#45;o6CgjNxvpGsjKRpDYZ956xfMvzq40&#45;&gt;pIUU1hD6QIV1UoQDhPYWHZ58DTJ9H_pDHXpmc1wvaQfQ -->
<g id="edge6" class="edge">
<title>pbU6EYdx2vg0IY&#45;o6CgjNxvpGsjKRpDYZ956xfMvzq40:3&#45;&gt;pIUU1hD6QIV1UoQDhPYWHZ58DTJ9H_pDHXpmc1wvaQfQ:hash</title>
<path fill="none" stroke="black" d="M670.75,-405C630.01,-405 670.24,-327.65 645.32,-312.54"/>
<polygon fill="black" stroke="black" points="646.29,-308.93 635.75,-310 644.65,-315.74 646.29,-308.93"/>
</g>
<!-- pbU6EYdx2vg0IY&#45;o6CgjNxvpGsjKRpDYZ956xfMvzq40&#45;&gt;pvZMwC_qZL6ee0M5yRWialHwomDCHE6vlM1Yu6R6ryaw -->
<g id="edge7" class="edge">
<title>pbU6EYdx2vg0IY&#45;o6CgjNxvpGsjKRpDYZ956xfMvzq40:4&#45;&gt;pvZMwC_qZL6ee0M5yRWialHwomDCHE6vlM1Yu6R6ryaw:hash</title>
<path fill="none" stroke="black" d="M670.75,-380C594.39,-380 684.9,-269.58 634.75,-212 618.53,-193.37 606.55,-190.51 585.17,-190.08"/>
<polygon fill="black" stroke="black" points="585.27,-186.57 575.25,-190 585.23,-193.57 585.27,-186.57"/>
</g>
</g>
</svg>
