<?xml version="1.0" encoding="UTF-8" standalone="no"?>
<!DOCTYPE svg PUBLIC "-//W3C//DTD SVG 1.1//EN"
 "http://www.w3.org/Graphics/SVG/1.1/DTD/svg11.dtd">
<!-- Generated by graphviz version 8.1.0 (0)
 -->
<!-- Title: G Pages: 1 -->
<svg width="976pt" height="624pt"
 viewBox="0.00 0.00 975.50 623.73" xmlns="http://www.w3.org/2000/svg" xmlns:xlink="http://www.w3.org/1999/xlink">
<g id="graph0" class="graph" transform="scale(1 1) rotate(0) translate(4 619.73)">
<title>G</title>
<polygon fill="white" stroke="none" points="-4,4 -4,-619.73 971.5,-619.73 971.5,4 -4,4"/>
<!-- pYrs7iz3VznXh&#45;ogv4aM62VmMNxXFiT4P24tIfVz9sTk -->
<g id="node1" class="node">
<title>pYrs7iz3VznXh&#45;ogv4aM62VmMNxXFiT4P24tIfVz9sTk</title>
<polygon fill="none" stroke="black" points="0,-0.5 0,-101.5 179.75,-101.5 179.75,-0.5 0,-0.5"/>
<text text-anchor="middle" x="89.75" y="-84.2" font-family="Times,serif" font-size="14.00">Yrs7iz::Tk</text>
<polyline fill="none" stroke="black" points="0,-76.25 179.75,-76.25"/>
<text text-anchor="middle" x="79.62" y="-58.95" font-family="Times,serif" font-size="14.00">signed: AAAAAA::AA</text>
<polyline fill="none" stroke="black" points="159.25,-51 159.25,-76.25"/>
<text text-anchor="middle" x="169.5" y="-58.95" font-family="Times,serif" font-size="14.00"> </text>
<polyline fill="none" stroke="black" points="0,-51 179.75,-51"/>
<text text-anchor="middle" x="89.88" y="-33.7" font-family="Times,serif" font-size="14.00">data=Hello, Sol!</text>
<polyline fill="none" stroke="black" points="0,-25.75 179.75,-25.75"/>
<text text-anchor="middle" x="89.88" y="-8.45" font-family="Times,serif" font-size="14.00">0 links</text>
</g>
<!-- pBhLJUReezeogaqZUV2mC0pu1iwVAZMlLT3FeTmX0KLQ -->
<g id="node2" class="node">
<title>pBhLJUReezeogaqZUV2mC0pu1iwVAZMlLT3FeTmX0KLQ</title>
<polygon fill="none" stroke="black" points="250.25,-461.5 250.25,-562.5 600.25,-562.5 600.25,-461.5 250.25,-461.5"/>
<text text-anchor="middle" x="425" y="-545.2" font-family="Times,serif" font-size="14.00">BhLJUR::LQ</text>
<polyline fill="none" stroke="black" points="250.25,-537.25 600.25,-537.25"/>
<text text-anchor="middle" x="329.88" y="-519.95" font-family="Times,serif" font-size="14.00">signed: AAAAAA::AA</text>
<polyline fill="none" stroke="black" points="409.5,-512 409.5,-537.25"/>
<text text-anchor="middle" x="504.88" y="-519.95" font-family="Times,serif" font-size="14.00">/my/example/spacename</text>
<polyline fill="none" stroke="black" points="250.25,-512 600.25,-512"/>
<text text-anchor="middle" x="425.25" y="-494.7" font-family="Times,serif" font-size="14.00">data=some data</text>
<polyline fill="none" stroke="black" points="250.25,-486.75 600.25,-486.75"/>
<text text-anchor="middle" x="425.25" y="-469.45" font-family="Times,serif" font-size="14.00">0 links</text>
</g>
<!-- pv5m3yqKtUr4F_SkiuPMIwccWCsa6PHoZa9t6yZzVvHA -->
<g id="node3" class="node">
<title>pv5m3yqKtUr4F_SkiuPMIwccWCsa6PHoZa9t6yZzVvHA</title>
<polygon fill="none" stroke="black" points="247.25,-341.5 247.25,-442.5 603.25,-442.5 603.25,-341.5 247.25,-341.5"/>
<text text-anchor="middle" x="425.12" y="-425.2" font-family="Times,serif" font-size="14.00">v5m3yq::HA</text>
<polyline fill="none" stroke="black" points="247.25,-417.25 603.25,-417.25"/>
<text text-anchor="middle" x="326.88" y="-399.95" font-family="Times,serif" font-size="14.00">signed: AAAAAA::AA</text>
<polyline fill="none" stroke="black" points="406.5,-392 406.5,-417.25"/>
<text text-anchor="middle" x="504.88" y="-399.95" font-family="Times,serif" font-size="14.00">/my/example/other_space</text>
<polyline fill="none" stroke="black" points="247.25,-392 603.25,-392"/>
<text text-anchor="middle" x="425.25" y="-374.7" font-family="Times,serif" font-size="14.00">data=</text>
<polyline fill="none" stroke="black" points="247.25,-366.75 603.25,-366.75"/>
<text text-anchor="middle" x="425.25" y="-349.45" font-family="Times,serif" font-size="14.00">0 links</text>
</g>
<!-- pxPiohwQ6EVL2_6fOtOnyJM4mfM1JpUp&#45;bm3VRKGG0O8 -->
<g id="node4" class="node">
<title>pxPiohwQ6EVL2_6fOtOnyJM4mfM1JpUp&#45;bm3VRKGG0O8</title>
<polygon fill="none" stroke="black" points="215.75,-221.5 215.75,-322.5 634.75,-322.5 634.75,-221.5 215.75,-221.5"/>
<text text-anchor="middle" x="425.25" y="-305.2" font-family="Times,serif" font-size="14.00">xPiohw::O8</text>
<polyline fill="none" stroke="black" points="215.75,-297.25 634.75,-297.25"/>
<text text-anchor="middle" x="294.62" y="-279.95" font-family="Times,serif" font-size="14.00">signed: tb0anw::W4</text>
<polyline fill="none" stroke="black" points="373.5,-272 373.5,-297.25"/>
<text text-anchor="middle" x="504.12" y="-279.95" font-family="Times,serif" font-size="14.00">/my/example/spacename/subspace</text>
<polyline fill="none" stroke="black" points="215.75,-272 634.75,-272"/>
<text text-anchor="middle" x="425.25" y="-254.7" font-family="Times,serif" font-size="14.00">data=</text>
<polyline fill="none" stroke="black" points="215.75,-246.75 634.75,-246.75"/>
<text text-anchor="middle" x="425.25" y="-229.45" font-family="Times,serif" font-size="14.00">0 links</text>
</g>
<!-- pk_Ea8jSIlTutnpHKoNpGxbe7YwpliTHQ7VYQ5_UjnRY -->
<g id="node5" class="node">
<title>pk_Ea8jSIlTutnpHKoNpGxbe7YwpliTHQ7VYQ5_UjnRY</title>
<polygon fill="none" stroke="black" points="257,-51.25 257,-202.75 593.5,-202.75 593.5,-51.25 257,-51.25"/>
<text text-anchor="middle" x="425" y="-185.45" font-family="Times,serif" font-size="14.00">k_Ea8j::RY</text>
<polyline fill="none" stroke="black" points="257,-177.5 593.5,-177.5"/>
<text text-anchor="middle" x="336.62" y="-160.2" font-family="Times,serif" font-size="14.00">signed: AAAAAA::AA</text>
<polyline fill="none" stroke="black" points="416.25,-152.25 416.25,-177.5"/>
<text text-anchor="middle" x="504.88" y="-160.2" font-family="Times,serif" font-size="14.00">/my/example/linkpoing</text>
<polyline fill="none" stroke="black" points="257,-152.25 593.5,-152.25"/>
<text text-anchor="middle" x="425.25" y="-134.95" font-family="Times,serif" font-size="14.00">data=</text>
<polyline fill="none" stroke="black" points="257,-127 593.5,-127"/>
<text text-anchor="middle" x="425.25" y="-109.7" font-family="Times,serif" font-size="14.00">2 links</text>
<polyline fill="none" stroke="black" points="257,-101.75 593.5,-101.75"/>
<text text-anchor="middle" x="425.25" y="-84.45" font-family="Times,serif" font-size="14.00">my first link: Yrs7iz::Tk</text>
<polyline fill="none" stroke="black" points="257,-76.5 593.5,-76.5"/>
<text text-anchor="middle" x="425.25" y="-59.2" font-family="Times,serif" font-size="14.00">other link: Yrs7iz::Tk</text>
</g>
<!-- pk_Ea8jSIlTutnpHKoNpGxbe7YwpliTHQ7VYQ5_UjnRY&#45;&gt;pYrs7iz3VznXh&#45;ogv4aM62VmMNxXFiT4P24tIfVz9sTk -->
<g id="edge1" class="edge">
<title>pk_Ea8jSIlTutnpHKoNpGxbe7YwpliTHQ7VYQ5_UjnRY:0&#45;&gt;pYrs7iz3VznXh&#45;ogv4aM62VmMNxXFiT4P24tIfVz9sTk:hash</title>
<path fill="none" stroke="black" d="M256.25,-89C226.23,-89 216.09,-89 190.73,-89"/>
<polygon fill="black" stroke="black" points="190.75,-85.5 180.75,-89 190.75,-92.5 190.75,-85.5"/>
</g>
<!-- pk_Ea8jSIlTutnpHKoNpGxbe7YwpliTHQ7VYQ5_UjnRY&#45;&gt;pYrs7iz3VznXh&#45;ogv4aM62VmMNxXFiT4P24tIfVz9sTk -->
<g id="edge2" class="edge">
<title>pk_Ea8jSIlTutnpHKoNpGxbe7YwpliTHQ7VYQ5_UjnRY:1&#45;&gt;pYrs7iz3VznXh&#45;ogv4aM62VmMNxXFiT4P24tIfVz9sTk:hash</title>
<path fill="none" stroke="black" d="M256.25,-64C224.39,-64 216.97,-83.83 190.46,-88.17"/>
<polygon fill="black" stroke="black" points="190.45,-84.74 180.75,-89 190.99,-91.72 190.45,-84.74"/>
</g>
<!-- pg7mFJeWSHLFECBMuQ3tB9l3qUMYxOrtYvTw3W0KzESc -->
<g id="node6" class="node">
<title>pg7mFJeWSHLFECBMuQ3tB9l3qUMYxOrtYvTw3W0KzESc</title>
<polygon fill="none" stroke="black" points="670.75,-367.38 670.75,-594.62 967.5,-594.62 967.5,-367.38 670.75,-367.38"/>
<text text-anchor="middle" x="818.75" y="-577.33" font-family="Times,serif" font-size="14.00">g7mFJe::Sc</text>
<polyline fill="none" stroke="black" points="670.75,-569.38 967.5,-569.38"/>
<text text-anchor="middle" x="750.38" y="-552.08" font-family="Times,serif" font-size="14.00">signed: AAAAAA::AA</text>
<polyline fill="none" stroke="black" points="830,-544.12 830,-569.38"/>
<text text-anchor="middle" x="898.75" y="-552.08" font-family="Times,serif" font-size="14.00">/my/example/link</text>
<polyline fill="none" stroke="black" points="670.75,-544.12 967.5,-544.12"/>
<text text-anchor="middle" x="819.12" y="-526.83" font-family="Times,serif" font-size="14.00">data=</text>
<polyline fill="none" stroke="black" points="670.75,-518.88 967.5,-518.88"/>
<text text-anchor="middle" x="819.12" y="-501.57" font-family="Times,serif" font-size="14.00">5 links</text>
<polyline fill="none" stroke="black" points="670.75,-493.62 967.5,-493.62"/>
<text text-anchor="middle" x="819.12" y="-476.32" font-family="Times,serif" font-size="14.00">mytag: Yrs7iz::Tk</text>
<polyline fill="none" stroke="black" points="670.75,-468.38 967.5,-468.38"/>
<text text-anchor="middle" x="819.12" y="-451.07" font-family="Times,serif" font-size="14.00">mytag: BhLJUR::LQ</text>
<polyline fill="none" stroke="black" points="670.75,-443.12 967.5,-443.12"/>
<text text-anchor="middle" x="819.12" y="-425.82" font-family="Times,serif" font-size="14.00">mytag: v5m3yq::HA</text>
<polyline fill="none" stroke="black" points="670.75,-417.88 967.5,-417.88"/>
<text text-anchor="middle" x="819.12" y="-400.57" font-family="Times,serif" font-size="14.00">mytag: xPiohw::O8</text>
<polyline fill="none" stroke="black" points="670.75,-392.62 967.5,-392.62"/>
<text text-anchor="middle" x="819.12" y="-375.32" font-family="Times,serif" font-size="14.00">mytag: k_Ea8j::RY</text>
</g>
<!-- pg7mFJeWSHLFECBMuQ3tB9l3qUMYxOrtYvTw3W0KzESc&#45;&gt;pYrs7iz3VznXh&#45;ogv4aM62VmMNxXFiT4P24tIfVz9sTk -->
<g id="edge3" class="edge">
<title>pg7mFJeWSHLFECBMuQ3tB9l3qUMYxOrtYvTw3W0KzESc:0&#45;&gt;pYrs7iz3VznXh&#45;ogv4aM62VmMNxXFiT4P24tIfVz9sTk:hash</title>
<path fill="none" stroke="black" d="M670.75,-481C627.26,-481 670.72,-547.55 634.75,-572 557.75,-624.35 283.99,-635.35 215.75,-572 178.93,-537.82 226.39,-146.48 189.06,-94.65"/>
<polygon fill="black" stroke="black" points="191.11,-91.2 180.75,-89 187.48,-97.18 191.11,-91.2"/>
</g>
<!-- pg7mFJeWSHLFECBMuQ3tB9l3qUMYxOrtYvTw3W0KzESc&#45;&gt;pBhLJUReezeogaqZUV2mC0pu1iwVAZMlLT3FeTmX0KLQ -->
<g id="edge4" class="edge">
<title>pg7mFJeWSHLFECBMuQ3tB9l3qUMYxOrtYvTw3W0KzESc:1&#45;&gt;pBhLJUReezeogaqZUV2mC0pu1iwVAZMlLT3FeTmX0KLQ:hash</title>
<path fill="none" stroke="black" d="M670.75,-456C622.85,-456 648.36,-535.89 611.93,-548.37"/>
<polygon fill="black" stroke="black" points="611.61,-545.03 602.25,-550 612.66,-551.95 611.61,-545.03"/>
</g>
<!-- pg7mFJeWSHLFECBMuQ3tB9l3qUMYxOrtYvTw3W0KzESc&#45;&gt;pv5m3yqKtUr4F_SkiuPMIwccWCsa6PHoZa9t6yZzVvHA -->
<g id="edge5" class="edge">
<title>pg7mFJeWSHLFECBMuQ3tB9l3qUMYxOrtYvTw3W0KzESc:2&#45;&gt;pv5m3yqKtUr4F_SkiuPMIwccWCsa6PHoZa9t6yZzVvHA:hash</title>
<path fill="none" stroke="black" d="M670.75,-430C645.24,-430 636.24,-430 615.24,-430"/>
<polygon fill="black" stroke="black" points="615.25,-426.5 605.25,-430 615.25,-433.5 615.25,-426.5"/>
</g>
<!-- pg7mFJeWSHLFECBMuQ3tB9l3qUMYxOrtYvTw3W0KzESc&#45;&gt;pxPiohwQ6EVL2_6fOtOnyJM4mfM1JpUp&#45;bm3VRKGG0O8 -->
<g id="edge6" class="edge">
<title>pg7mFJeWSHLFECBMuQ3tB9l3qUMYxOrtYvTw3W0KzESc:3&#45;&gt;pxPiohwQ6EVL2_6fOtOnyJM4mfM1JpUp&#45;bm3VRKGG0O8:hash</title>
<path fill="none" stroke="black" d="M670.75,-405C630.01,-405 670.24,-327.65 645.32,-312.54"/>
<polygon fill="black" stroke="black" points="646.29,-308.93 635.75,-310 644.65,-315.74 646.29,-308.93"/>
</g>
<!-- pg7mFJeWSHLFECBMuQ3tB9l3qUMYxOrtYvTw3W0KzESc&#45;&gt;pk_Ea8jSIlTutnpHKoNpGxbe7YwpliTHQ7VYQ5_UjnRY -->
<g id="edge7" class="edge">
<title>pg7mFJeWSHLFECBMuQ3tB9l3qUMYxOrtYvTw3W0KzESc:4&#45;&gt;pk_Ea8jSIlTutnpHKoNpGxbe7YwpliTHQ7VYQ5_UjnRY:hash</title>
<path fill="none" stroke="black" d="M670.75,-380C594.39,-380 680.48,-273.15 634.75,-212 624.88,-198.8 617.93,-192.6 604.92,-190.68"/>
<polygon fill="black" stroke="black" points="605.45,-187.14 595.25,-190 605.01,-194.13 605.45,-187.14"/>
</g>
</g>
</svg>
